<svg width="497" height="422" viewBox="0 0 497 422" fill="none" xmlns="http://www.w3.org/2000/svg">
<path d="M345.863 275.366C344.384 275.366 343.09 274.508 342.535 273.221C341.056 270.218 342.905 266.571 347.157 258.849C348.082 257.133 349.006 255.417 349.931 253.486C353.814 245.764 361.209 243.19 366.016 244.691C369.714 245.764 371.933 249.196 371.933 253.486C371.933 265.07 362.134 267.644 355.478 269.574C351.78 270.647 351.04 271.72 350.301 272.792C349.746 273.65 348.452 275.366 345.863 275.366ZM363.058 251.126C360.655 251.126 357.142 252.843 354.923 256.918C353.998 258.849 352.889 260.779 351.965 262.496C351.78 262.925 351.595 263.354 351.41 263.783C352.15 263.568 353.074 263.139 353.998 262.925C363.058 260.35 365.832 258.205 365.832 253.486C365.832 252.628 365.647 251.77 364.352 251.341C363.983 251.126 363.613 251.126 363.058 251.126Z" fill="#1A3E83"/>
<path d="M316.468 322.129C315.914 322.129 315.174 321.915 314.434 321.7C313.14 321.057 312.216 319.77 312.031 318.268C311.661 314.836 314.619 312.476 321.091 307.113C322.57 306.041 324.049 304.754 325.528 303.467C331.814 298.104 339.395 299.176 343.277 302.823C346.236 305.612 347.16 309.688 345.681 313.549C341.798 324.06 331.814 322.129 325.158 320.628C321.46 319.77 320.351 320.628 319.426 321.271C318.687 321.486 317.762 322.129 316.468 322.129ZM323.494 313.334C324.234 313.334 325.158 313.549 326.083 313.763C335.327 315.694 338.47 314.836 340.134 310.76C340.504 309.902 340.504 309.044 339.395 307.971C337.546 306.255 332.924 305.397 328.856 308.829C327.192 310.117 325.713 311.404 324.419 312.476C324.234 312.691 323.864 312.905 323.494 313.334Z" fill="#1A3E83"/>
<path d="M445.337 263.997C441.269 263.997 437.202 262.281 433.874 260.994C430.361 259.492 429.066 260.136 428.142 260.35C427.033 260.779 425.184 261.423 423.15 259.921C421.856 259.063 421.301 257.562 421.301 256.06C421.486 252.628 424.814 250.912 431.84 246.836C433.319 245.978 434.983 245.12 436.832 244.047C443.858 239.972 451.068 242.546 454.396 246.836C456.8 250.054 457.17 254.344 455.136 257.991C452.732 262.495 449.035 263.997 445.337 263.997ZM433.504 253.486C434.243 253.7 435.168 253.915 436.092 254.344C444.782 257.991 448.295 257.991 450.329 254.129C450.699 253.486 451.068 252.628 450.144 251.341C448.665 249.41 444.227 247.48 439.605 250.054C437.941 251.126 436.092 251.984 434.613 252.842C434.243 253.057 433.874 253.271 433.504 253.486Z" fill="#1A3E83"/>
<path d="M206.526 342.399C162.892 345.831 61.5711 343.9 52.6963 316.443C43.8215 288.985 76.3624 270.537 143.478 249.515C210.778 228.493 351.296 230.209 351.296 230.209L339.093 236.859L323.562 258.739L308.956 268.178L302.484 268.392C302.484 268.392 289.357 291.988 281.777 295.635C274.196 299.282 255.152 305.288 255.152 305.288C255.152 305.288 242.765 315.799 243.134 328.241C243.134 328.241 227.234 315.37 215.955 326.954C204.677 338.752 206.526 342.399 206.526 342.399Z" fill="#A3D2E8"/>
<path d="M51.0316 314.512L50.292 307.648C52.1409 307.433 242.949 280.405 299.71 270.537L300.635 277.402C243.688 287.269 52.8805 314.083 51.0316 314.512Z" fill="black"/>
<path d="M127.393 255.092L142.923 249.73L169.733 295.635L157.9 341.112H139.965L152.353 292.417L127.393 255.092Z" fill="#EEF7F7"/>
<path d="M142.739 344.543L137.192 342.613L149.21 296.922L124.989 256.165L129.796 252.303L155.681 295.849L142.739 344.543Z" fill="black"/>
<path d="M160.117 344.544L154.57 342.613L166.588 296.922L140.149 252.518L144.956 248.657L173.06 295.85L160.117 344.544Z" fill="black"/>
<path d="M168.994 346.904C123.14 346.904 57.8738 341.756 49.9234 317.516C47.5199 310.222 47.7048 303.143 50.663 296.494C58.4285 278.689 85.2377 264.102 142.739 246.083C209.67 225.276 349.817 226.777 351.296 226.777V233.642C349.817 233.642 210.409 232.14 144.403 252.733C89.3053 269.894 62.8658 283.837 56.0249 299.711C53.8062 304.645 53.8062 309.579 55.6551 315.156C63.2356 338.323 156.606 342.828 206.526 338.967L206.896 345.831C198.761 346.475 185.079 346.904 168.994 346.904Z" fill="black"/>
<path d="M316.721 130.462V131.964C316.721 142.046 312.654 148.266 300.636 151.055C297.493 151.913 293.055 152.342 288.063 152.986C287.139 153.2 286.029 153.2 285.105 153.415C274.751 154.487 262.548 155.131 252.564 155.345C253.304 158.992 253.858 162.853 254.228 166.714C256.447 189.882 253.858 205.541 253.858 205.541C253.858 205.541 257.741 205.327 262.733 207.043C267.91 208.973 274.012 213.049 278.079 221.844C279.743 225.491 280.853 228.923 281.592 231.926C281.962 233.428 282.147 234.929 282.332 236.431C282.701 238.576 282.701 240.506 282.517 242.437C282.517 243.295 282.332 244.368 282.147 245.226C281.962 246.727 281.592 248.014 281.222 249.301C281.222 249.301 281.222 249.301 281.222 249.516C281.222 249.516 281.222 249.516 281.222 249.73V249.945C280.298 252.734 279.004 255.308 277.34 257.882C276.415 258.954 275.306 259.812 274.196 260.885C272.902 262.172 271.608 263.245 270.314 264.746C269.944 265.175 269.389 265.604 269.019 266.033C268.28 266.891 267.355 267.535 266.616 268.393C265.691 269.251 264.767 270.109 263.658 270.753C260.33 272.898 256.632 273.541 252.749 273.541C250.53 273.541 248.497 273.112 246.278 272.683C245.538 272.469 244.799 272.254 244.059 272.04C244.059 272.04 244.059 272.04 243.874 272.04C240.916 271.182 238.143 269.68 235.739 268.393C235.184 266.891 234.445 265.39 233.89 263.888C233.335 262.172 232.781 260.671 232.226 259.169C232.411 258.954 232.411 258.525 232.596 258.311C233.335 256.595 233.705 255.737 233.705 255.737C234.075 253.592 233.151 251.017 232.411 249.301C231.671 247.8 231.117 246.727 231.117 246.727C228.343 250.374 224.83 252.734 221.317 254.235L203.568 256.595C202.828 256.595 202.643 256.38 202.643 256.38C202.828 257.453 203.013 258.525 203.198 259.598C203.383 260.241 203.383 260.885 203.383 261.529C203.568 263.245 203.753 264.746 203.753 266.462C203.938 267.535 203.938 268.607 203.938 269.68C203.938 271.182 203.938 272.683 203.938 274.185C203.938 275.043 203.938 276.115 203.938 276.973C203.938 278.046 203.753 279.118 203.753 279.977C203.753 280.62 203.753 281.264 203.568 281.907C203.383 282.98 203.383 283.623 203.383 283.623C165.665 290.702 151.059 276.115 151.059 276.115C161.228 251.446 154.757 229.566 152.168 219.913C149.949 211.762 148.47 199.535 147.546 186.879C143.293 190.74 139.041 194.601 134.788 198.033C133.494 199.32 132.015 200.393 130.721 201.465C126.653 204.898 122.77 207.901 119.442 210.26C118.518 211.118 117.409 211.762 116.484 212.405C114.265 213.907 112.416 215.194 110.937 215.838C105.945 218.412 101.323 219.699 97.4402 219.699C91.8935 219.699 87.4561 217.125 84.313 211.976C78.5813 203.396 80.0605 193.099 87.641 184.304C88.0108 183.875 88.1957 183.661 88.5655 183.232C89.4899 182.159 90.5993 180.872 91.5237 179.8C92.6331 178.513 93.7424 177.44 94.8518 176.153C95.9611 174.866 97.2554 173.579 98.5496 172.506C99.8438 171.219 101.138 169.932 102.432 168.645C106.5 164.784 110.752 161.137 115.005 157.49C117.593 155.131 120.367 152.986 122.955 151.055C123.14 150.841 123.325 150.626 123.51 150.626C124.804 149.554 126.283 148.481 127.578 147.408C132.939 143.118 137.931 139.471 141.814 136.897C142.739 136.254 143.663 135.61 144.403 135.181C145.142 134.538 145.882 134.323 146.621 133.894C133.124 121.667 132.2 103.219 132.939 90.9919C132.015 91.2064 130.906 91.4209 129.796 91.4209C119.627 91.4209 111.492 81.1243 111.492 68.2537C111.492 55.383 119.627 45.0864 129.796 45.0864C136.267 45.0864 141.999 49.3766 145.327 55.812C147.546 52.3798 150.134 49.1621 152.908 45.7299C160.858 36.0769 173.8 20.8466 164.186 14.8403C164.001 14.6258 164.001 14.1967 164.371 14.4113C168.069 15.2693 178.053 17.4144 187.667 23.4208L185.633 6.04531C185.633 5.61628 186.003 5.40178 186.188 5.61629C189.701 8.19043 206.526 20.8466 213.737 26.4239C221.687 32.6447 233.151 42.5123 241.84 55.383C245.168 48.9476 251.27 44.6574 257.926 44.6574C268.465 44.6574 277.155 54.9539 277.155 67.8246C277.155 80.6953 268.465 90.9919 257.926 90.9919C256.447 90.9919 255.153 90.7774 253.858 90.3483C253.858 90.9919 253.858 91.6354 253.858 92.2789C253.858 99.7868 253.119 107.08 250.9 113.73C253.304 113.301 255.707 112.872 258.481 112.872C267.91 112.014 279.743 111.799 292.131 111.799C294.165 111.799 296.383 111.799 298.602 111.799C309.511 112.658 316.167 119.522 316.721 130.462Z" fill="#AA813F"/>
<path d="M229.823 255.307C203.753 263.244 202.828 269.894 202.828 269.894V255.736L222.982 253.162L230.562 245.869L232.966 254.02L229.823 255.307Z" fill="#AA813F"/>
<path d="M276.969 66.9645C276.969 78.7627 269.019 88.4157 259.22 88.4157C257.186 88.4157 255.152 87.9867 253.303 87.1287C253.118 82.1949 252.009 74.687 248.126 66.9645C246.647 63.9614 244.983 60.7437 243.134 58.1696C245.907 50.8762 252.009 45.7279 259.22 45.7279C269.019 45.7279 276.969 55.1664 276.969 66.9645Z" fill="#EECB8A"/>
<path d="M131.645 87.5595C130.721 87.774 129.797 87.774 128.872 87.774C119.073 87.774 111.123 78.55 111.123 67.1809C111.123 55.8118 119.073 46.5878 128.872 46.5878C135.158 46.5878 140.705 50.449 143.848 56.2408L131.645 87.5595Z" fill="#EECB8A"/>
<path d="M186.558 144.405C124.619 144.405 143.478 104.506 143.478 104.506C143.478 104.506 139.225 97.4271 139.225 83.9129C139.225 70.3986 149.025 55.8118 164.371 55.8118C177.683 55.8118 186.558 69.3261 186.558 69.3261C186.558 69.3261 195.617 55.8118 208.744 55.8118C223.906 55.8118 233.89 70.3986 233.89 83.9129C233.89 97.4271 229.637 104.506 229.637 104.506C229.637 104.506 248.496 144.405 186.558 144.405Z" fill="#EECB8A"/>
<path d="M186.557 146.978C162.891 146.978 147.73 141.187 141.629 129.817C136.082 119.735 139.41 108.795 141.074 104.72C139.78 101.931 137.191 94.8521 137.191 83.912C137.191 69.1107 148.1 53.2368 164.555 53.2368C175.279 53.2368 183.414 61.3883 186.742 65.464C190.07 61.3883 198.206 53.2368 208.929 53.2368C225.2 53.2368 236.293 69.1107 236.293 83.912C236.293 94.8521 233.52 101.931 232.41 104.72C234.074 108.795 237.218 119.735 231.856 129.817C225.385 141.187 210.224 146.978 186.557 146.978ZM164.37 58.1706C150.688 58.1706 141.444 71.4703 141.444 83.6975C141.444 94.4231 144.217 100.858 145.142 102.575C145.696 103.647 145.696 104.934 145.327 106.007C144.587 107.937 140.704 118.234 145.327 127.029C150.504 136.682 164.74 141.83 186.557 141.83C208.375 141.83 222.611 136.682 227.788 127.029C232.595 118.234 228.713 108.152 227.788 106.007C227.233 104.934 227.418 103.647 227.973 102.575C228.898 100.858 231.671 94.6376 231.671 83.6975C231.671 71.4703 222.426 58.1706 208.744 58.1706C196.726 58.1706 188.406 70.6123 188.221 70.6123L186.557 73.1864L184.708 70.6123C184.708 70.6123 176.203 58.1706 164.37 58.1706Z" fill="black"/>
<path d="M135.527 93.566H129.611C129.795 72.7583 142.368 54.0958 142.923 53.4523L147.545 57.7425C147.36 57.528 135.712 75.118 135.527 93.566Z" fill="black"/>
<path d="M187.112 148.91C166.404 148.91 149.579 143.333 142.738 135.61L146.806 130.676C154.386 139.257 182.305 146.765 214.476 138.613C243.874 131.32 248.126 113.515 248.311 112.657L254.043 114.373C253.858 115.232 249.051 137.112 215.77 145.478C205.786 147.837 196.172 148.91 187.112 148.91Z" fill="black"/>
<path d="M165.665 101.502C168.933 101.502 171.582 98.4288 171.582 94.6377C171.582 90.8466 168.933 87.7733 165.665 87.7733C162.398 87.7733 159.749 90.8466 159.749 94.6377C159.749 98.4288 162.398 101.502 165.665 101.502Z" fill="black"/>
<path d="M206.526 101.502C209.794 101.502 212.443 98.4286 212.443 94.6375C212.443 90.8464 209.794 87.7732 206.526 87.7732C203.259 87.7732 200.61 90.8464 200.61 94.6375C200.61 98.4286 203.259 101.502 206.526 101.502Z" fill="black"/>
<path d="M191.549 103.004C190.07 101.288 188.406 101.073 186.927 101.073C185.263 101.288 183.784 101.502 182.304 103.004L181.75 103.647L181.935 104.291C182.304 106.221 182.859 108.152 183.599 109.868C183.599 109.868 184.523 111.37 187.112 111.37C189.7 111.37 190.625 109.868 190.625 109.868C191.179 108.152 191.734 106.221 192.104 104.291L192.289 103.647L191.549 103.004ZM183.784 109.01C183.784 107.508 183.599 107.079 183.599 105.578C183.968 105.363 184.523 105.363 184.893 105.149C185.448 105.149 186.187 104.934 186.927 104.934C187.666 104.934 188.221 104.934 188.961 105.149C189.33 105.149 189.885 105.363 190.255 105.578C190.07 107.079 190.07 107.508 190.07 109.01C189.885 109.225 189.145 110.297 186.927 110.297C184.523 110.297 183.784 109.01 183.784 109.01Z" fill="black"/>
<path d="M173.429 114.373C175.093 120.165 182.304 123.597 187.296 123.811C191.918 124.026 199.684 119.95 201.163 114.373H202.272C203.197 118.663 200.238 122.739 197.465 125.313C192.103 131.105 182.489 131.105 176.942 125.313C174.169 122.739 171.21 118.878 172.135 114.373C172.32 114.158 173.429 114.373 173.429 114.373Z" fill="black"/>
<path d="M207.081 243.294C225.155 243.294 239.807 223.51 239.807 199.105C239.807 174.7 225.155 154.916 207.081 154.916C189.007 154.916 174.355 174.7 174.355 199.105C174.355 223.51 189.007 243.294 207.081 243.294Z" fill="#EECB8A"/>
<path d="M207.081 246.727C187.298 246.727 171.397 225.276 171.397 199.106C171.397 172.721 187.483 151.484 207.081 151.484C226.865 151.484 242.765 172.935 242.765 199.106C242.95 225.276 226.865 246.727 207.081 246.727ZM207.081 158.348C190.626 158.348 177.314 176.582 177.314 199.106C177.314 221.629 190.626 239.863 207.081 239.863C223.537 239.863 236.849 221.629 236.849 199.106C237.034 176.582 223.537 158.348 207.081 158.348Z" fill="black"/>
<path d="M116.113 211.977C113.895 213.479 112.046 214.766 110.567 215.409C105.575 217.983 100.952 219.271 97.0696 219.271C91.5229 219.271 87.0855 216.696 83.9424 211.548C78.2107 202.753 79.6899 192.671 87.2704 183.876C87.6402 183.447 87.8251 183.018 88.1949 182.804C88.1949 182.804 90.5985 189.024 99.4732 199.321C109.827 211.334 115.929 211.334 115.929 211.334L116.113 211.977Z" fill="#EECB8A"/>
<path d="M97.0686 222.702C90.5974 222.702 85.4204 219.699 81.5377 213.692C75.0665 203.61 76.3608 191.812 85.0506 181.73C85.2355 181.516 85.6053 180.872 86.16 180.443L89.1183 177.44L90.7823 181.516C90.7823 181.516 93.5557 188.38 101.876 198.247C109.641 207.471 114.448 209.402 114.633 209.402L116.112 209.831L117.407 214.121L115.558 216.052C114.633 216.695 114.264 217.124 113.894 217.339C113.339 217.768 112.969 218.197 111.86 218.626C106.313 221.2 101.321 222.702 97.0686 222.702ZM87.6391 188.38C84.1262 193.314 80.7981 201.036 86.3449 209.402C90.9672 216.695 97.9931 217.553 107.977 212.834C105.389 210.904 101.876 207.686 97.8082 202.752C92.6312 196.746 89.4881 191.812 87.6391 188.38Z" fill="black"/>
<path d="M316.722 130.461V131.963C316.722 142.045 312.654 148.265 300.636 151.054C298.048 151.698 294.72 152.127 291.022 152.77C291.022 152.77 299.527 149.123 299.527 130.461C299.527 116.518 293.795 112.442 292.686 111.798C294.72 111.798 296.938 111.798 298.972 111.798C309.511 112.656 316.167 119.521 316.722 130.461Z" fill="#EECB8A"/>
<path d="M288.064 156.417V150.196L289.912 149.338C290.097 149.338 296.384 146.12 296.384 130.246C296.384 117.805 291.392 114.801 291.207 114.587L280.113 108.152H298.972C311.545 109.439 319.125 117.59 319.68 130.246V131.962C319.68 144.404 313.763 151.483 301.191 154.486C298.602 155.13 295.274 155.559 291.392 156.202L288.064 156.417ZM299.527 115.23C301.191 118.663 302.485 123.382 302.485 130.246C302.485 138.398 301.006 143.975 299.157 147.836C299.527 147.836 299.897 147.622 300.082 147.622C311.545 145.048 313.763 139.47 313.763 131.962V130.461C313.394 121.88 308.217 116.303 299.527 115.23Z" fill="black"/>
<path d="M251.454 93.3511C249.605 74.045 246.092 67.8242 242.209 61.1743L241.285 59.6727C237.217 52.5939 231.855 46.1585 231.855 46.1585L234.998 42.5118C235.183 42.7263 240.73 49.3762 244.982 56.8841L245.907 58.3857C249.79 65.25 253.857 72.3289 255.891 92.9221L251.454 93.3511Z" fill="black"/>
<path d="M126.282 66.7518C125.173 66.7518 124.248 66.1083 123.694 64.8212C122.954 63.1051 123.509 61.1745 124.988 60.3165C130.35 57.0988 138.115 59.8874 139.04 60.102C140.519 60.7455 141.443 62.4616 141.073 64.3922C140.519 66.1083 139.04 67.1808 137.376 66.7518C135.712 66.1083 130.535 64.8212 127.761 66.5373C127.207 66.7518 126.837 66.7518 126.282 66.7518Z" fill="black"/>
<path d="M248.682 69.1114C248.127 69.1114 247.387 68.8969 246.833 68.4679C245.538 67.3953 245.354 65.2502 246.278 63.7486C249.051 59.4584 257.002 53.023 266.431 58.6003C267.91 59.4584 268.465 61.6035 267.725 63.1051C266.986 64.8212 265.137 65.4647 263.843 64.6067C256.632 60.3164 251.64 67.1808 251.085 68.0388C250.53 68.6824 249.606 69.1114 248.682 69.1114Z" fill="black"/>
<path d="M206.711 345.832L201.165 343.258C204.123 335.106 208.93 325.024 220.578 320.305C228.713 317.087 235.554 319.876 239.807 323.308C242.95 312.797 250.531 301.428 257.371 300.57C264.028 299.926 270.869 298.639 281.592 292.847C286.769 290.059 290.467 282.98 293.795 276.974C297.493 270.109 300.636 264.317 305.628 264.317C311.545 264.317 316.352 263.674 322.453 254.879C323.378 253.592 324.302 252.09 325.412 250.589C332.068 240.721 340.203 228.279 350.742 226.349C359.616 224.847 362.76 220.128 369.785 209.831L372.004 206.614C377.366 198.891 380.139 198.677 384.022 199.106C385.871 199.32 387.905 199.749 392.157 196.961C396.595 194.172 400.662 189.882 404.545 185.592C410.277 179.371 415.638 173.579 421.925 173.579C427.471 173.579 431.909 178.298 435.237 181.945C436.716 183.661 439.674 186.021 440.414 186.235C445.406 187.308 453.726 177.655 453.726 175.081L453.541 175.939C452.802 182.588 449.289 188.38 444.297 191.383C443.927 191.598 443.372 192.027 443.002 192.241C438.565 194.816 434.682 190.525 431.169 186.879C428.211 183.875 425.068 180.229 421.74 180.229C417.857 180.229 413.235 185.163 408.428 190.525C404.545 194.816 400.108 199.535 394.931 202.967C389.014 206.828 385.686 206.185 383.282 205.97C381.249 205.756 380.324 205.541 376.626 210.904L374.408 214.122C367.197 224.847 362.76 231.283 351.666 233.213C343.531 234.715 336.135 245.869 330.219 254.879C329.109 256.38 328.185 257.882 327.26 259.169C319.68 270.109 312.469 271.182 305.813 271.182C304.149 271.182 301.191 276.759 298.972 280.62C295.459 287.27 290.837 295.422 284.366 299.068C272.717 305.289 265.137 306.576 258.111 307.434C253.674 307.863 245.723 320.305 244.614 330.172L243.69 338.538L239.252 331.888C239.067 331.459 232.966 322.665 222.612 326.74C213.182 330.387 209.485 338.109 206.711 345.832Z" fill="white"/>
<path d="M388.46 227.85C387.166 227.85 386.241 227.421 385.317 226.777C382.359 224.203 382.359 219.055 382.544 209.616C382.544 207.471 382.544 205.326 382.544 202.966C382.544 199.749 382.913 194.601 383.283 188.809C384.208 175.509 386.241 144.405 381.434 141.402C380.879 140.973 379.585 141.616 378.291 142.689C371.265 148.481 366.088 153.629 362.021 157.705C355.549 164.14 351.297 168.43 346.49 168.43C345.011 168.43 343.716 167.787 342.607 166.714C340.388 164.14 340.388 159.85 340.388 155.345C340.388 153.2 340.388 148.91 339.834 148.052C338.17 148.052 334.287 153.843 331.883 157.49C326.706 165.212 320.975 173.793 313.209 174.865C304.334 175.938 302.67 178.298 285.845 202.966C283.442 206.613 279.559 211.547 276.416 216.052L271.794 211.761C274.937 207.257 278.819 202.323 281.223 198.676C298.048 173.793 301.191 169.288 312.655 168.001C318.016 167.358 323.008 159.85 327.446 153.2C331.883 146.764 335.581 141.187 340.203 141.187C341.867 141.187 343.347 141.831 344.456 143.118C346.859 145.906 346.859 150.626 346.859 155.345C346.859 157.49 346.859 161.137 347.414 161.995C349.633 161.78 353.331 157.919 358.693 152.771C362.945 148.481 368.307 143.332 375.333 137.326C379.77 133.679 382.913 134.323 384.947 135.61C392.528 140.544 391.603 161.995 389.754 189.667C389.384 195.459 389.015 200.392 389.015 203.395C389.015 205.755 389.015 208.115 389.015 210.26C389.015 214.765 388.83 220.127 389.384 221.629C389.569 221.629 389.754 221.629 389.939 221.414C391.973 220.556 396.78 214.765 400.848 210.045C408.983 200.392 414.16 194.601 418.597 194.601C422.48 194.815 425.253 198.462 427.842 201.894C430.8 205.755 432.834 207.9 435.053 207.257C442.079 205.541 448.735 198.676 448.735 198.676L448.365 199.963C446.886 206.399 442.633 211.547 437.086 213.692H436.902C430.8 216.052 426.548 210.474 423.405 206.399C421.741 204.039 419.707 201.465 418.228 201.465C416.009 201.679 408.798 210.26 404.915 214.765C398.814 222.058 394.931 226.563 391.603 227.85C390.124 227.85 389.2 227.85 388.46 227.85Z" fill="white"/>
<path d="M464.448 269.679C464.448 269.679 450.212 272.897 444.11 278.688C441.707 281.048 438.933 284.266 436.16 287.483C429.504 295.206 425.991 297.78 422.663 298.853C419.705 299.711 417.301 299.925 414.898 300.354C416.007 303.357 417.116 307.648 416.192 311.938C415.452 316.228 412.864 319.66 408.611 322.02C395.114 329.742 369.045 325.452 361.464 323.092C358.321 322.234 357.581 322.449 357.581 322.449C357.211 323.092 357.581 326.095 357.766 327.383C358.136 331.029 356.842 335.105 354.253 338.537C350.186 343.9 343.345 346.689 334.84 346.689H333.915C326.335 346.689 309.14 346.689 306.551 349.692C306.736 349.692 306.921 350.121 307.291 350.55C310.619 355.055 311.728 359.13 310.249 362.348C308.215 367.282 301.929 369.212 289.726 368.569C287.692 368.354 285.289 368.354 283.07 368.14C269.388 367.282 251.454 367.496 242.209 375.433C247.386 365.351 259.589 358.487 269.573 359.559C273.641 359.988 278.078 360.846 283.255 361.061C285.474 361.275 287.692 361.49 289.726 361.49C303.408 362.133 304.702 359.13 304.702 359.13C304.887 358.916 304.702 357.414 302.668 354.84C300.08 351.193 300.265 348.405 301.004 346.689C303.593 340.039 315.611 339.61 333.545 339.61H334.84C343.899 339.61 348.152 335.963 349.816 333.818C351.295 331.887 352.034 329.742 351.85 328.026C351.48 324.379 351.11 319.875 353.883 317.086C356.472 314.512 360.355 315.37 363.128 316.228C370.893 318.588 394.929 322.02 406.023 315.584C408.611 314.083 409.906 312.367 410.46 310.007C411.015 307.004 409.905 303.357 408.796 301.212C408.426 300.783 408.241 300.354 408.057 299.925C407.872 299.496 407.872 299.067 407.872 298.424C407.872 296.493 408.981 294.991 410.46 294.562C410.645 294.562 410.83 294.562 411.2 294.562C413.234 294.348 417.301 293.919 421.369 292.417C426.361 290.058 428.395 286.196 431.723 282.335C434.496 279.118 437.454 275.685 440.228 273.326C448.363 265.818 464.079 269.679 464.448 269.679Z" fill="white"/>
<path d="M235.553 396.67C232.04 398.386 228.157 399.029 224.459 398.386L222.61 398.171C222.795 397.957 231.67 390.449 247.201 384.442C256.26 381.01 269.942 380.581 283.07 380.367C292.684 380.152 301.559 379.938 307.845 378.436C321.897 375.218 337.613 359.345 337.613 359.345C337.797 365.351 335.394 370.928 331.141 374.146C326.334 377.793 317.275 383.37 308.954 385.301C302.298 386.802 292.869 387.017 283.07 387.231C270.312 387.446 257.37 387.875 249.05 391.092C242.763 393.237 238.511 395.168 235.553 396.67Z" fill="white"/>
<path d="M375.886 349.693C370.154 350.766 364.238 349.05 359.431 344.974C359.615 344.974 383.466 343.043 410.091 332.532C436.715 322.021 463.155 300.141 463.339 299.926C462.23 306.362 458.902 311.724 454.095 315.371C445.405 321.807 429.874 332.103 411.94 339.182C396.224 345.403 383.651 348.406 375.886 349.693Z" fill="white"/>
<path d="M217.547 344.029L212 341.455C214.958 333.304 219.765 323.222 231.414 318.502C239.549 315.285 246.39 318.073 250.642 321.505C253.785 310.994 261.366 299.625 268.207 298.767C274.863 298.124 281.704 296.837 292.428 291.045C297.605 288.256 301.303 281.177 304.631 275.171C308.328 268.307 311.472 262.515 316.464 262.515C322.38 262.515 327.187 261.871 333.289 253.076C334.213 251.789 335.138 250.288 336.247 248.786C342.903 238.919 351.038 226.477 361.577 224.546C370.452 223.045 373.595 218.325 380.621 208.029L382.84 204.811C388.201 197.089 390.975 196.874 394.857 197.303C396.706 197.518 398.74 197.947 402.993 195.158C407.43 192.37 411.498 188.079 415.38 183.789C421.112 177.568 426.474 171.776 432.76 171.776C438.307 171.776 442.744 176.496 446.072 180.142C447.552 181.858 450.51 184.218 451.249 184.433C456.241 185.505 464.562 175.852 464.562 173.278L464.377 174.136C463.637 180.786 460.124 186.578 455.132 189.581C454.762 189.795 454.208 190.224 453.838 190.439C449.4 193.013 445.518 188.723 442.005 185.076C439.046 182.073 435.903 178.426 432.575 178.426C428.693 178.426 424.07 183.36 419.263 188.723C415.38 193.013 410.943 197.732 405.766 201.164C399.85 205.026 396.522 204.382 394.118 204.168C392.084 203.953 391.16 203.739 387.462 209.101L385.243 212.319C378.032 223.045 373.595 229.48 362.502 231.411C354.366 232.912 346.971 244.067 341.054 253.076C339.945 254.578 339.02 256.079 338.096 257.367C330.515 268.307 323.305 269.379 316.648 269.379C314.984 269.379 312.026 274.956 309.807 278.818C306.295 285.468 301.672 293.619 295.201 297.266C283.553 303.487 275.972 304.774 268.947 305.632C264.509 306.061 256.559 318.502 255.449 328.37L254.525 336.736L250.088 330.086C249.903 329.657 243.801 320.862 233.447 324.938C224.018 328.584 220.32 336.307 217.547 344.029Z" fill="white" fill-opacity="0.1"/>
<path d="M393.666 232.833C392.372 232.833 391.448 232.404 390.523 231.76C387.565 229.186 387.565 224.038 387.75 214.6C387.75 212.454 387.75 210.309 387.75 207.95C387.75 204.732 388.12 199.584 388.489 193.792C389.414 180.492 391.448 149.388 386.641 146.385C386.086 145.956 384.792 146.599 383.497 147.672C376.472 153.464 371.295 158.612 367.227 162.688C360.756 169.123 356.503 173.413 351.696 173.413C350.217 173.413 348.923 172.77 347.813 171.697C345.595 169.123 345.595 164.833 345.595 160.328C345.595 158.183 345.595 153.893 345.04 153.035C343.376 153.035 339.493 158.827 337.09 162.473C331.913 170.196 326.181 178.776 318.416 179.849C309.541 180.921 307.877 183.281 291.052 207.95C288.648 211.596 284.765 216.53 281.622 221.035L277 216.745C280.143 212.24 284.026 207.306 286.429 203.659C303.255 178.776 306.398 174.271 317.861 172.984C323.223 172.341 328.215 164.833 332.652 158.183C337.09 151.748 340.788 146.17 345.41 146.17C347.074 146.17 348.553 146.814 349.662 148.101C352.066 150.89 352.066 155.609 352.066 160.328C352.066 162.473 352.066 166.12 352.621 166.978C354.839 166.763 358.537 162.902 363.899 157.754C368.151 153.464 373.513 148.315 380.539 142.309C384.977 138.662 388.12 139.306 390.154 140.593C397.734 145.527 396.81 166.978 394.961 194.65C394.591 200.442 394.221 205.376 394.221 208.379C394.221 210.738 394.221 213.098 394.221 215.243C394.221 219.748 394.036 225.111 394.591 226.612C394.776 226.612 394.961 226.612 395.146 226.398C397.179 225.54 401.987 219.748 406.054 215.029C414.189 205.376 419.366 199.584 423.804 199.584C427.686 199.798 430.46 203.445 433.048 206.877C436.007 210.738 438.04 212.883 440.259 212.24C447.285 210.524 453.941 203.659 453.941 203.659L453.571 204.946C452.092 211.382 447.84 216.53 442.293 218.675H442.108C436.007 221.035 431.754 215.458 428.611 211.382C426.947 209.022 424.913 206.448 423.434 206.448C421.215 206.663 414.005 215.243 410.122 219.748C404.02 227.041 400.138 231.546 396.81 232.833C395.33 232.833 394.406 232.833 393.666 232.833Z" fill="white" fill-opacity="0.1"/>
<path d="M471.239 270.402C471.239 270.402 457.003 273.619 450.901 279.411C448.498 281.771 445.724 284.988 442.951 288.206C436.295 295.929 432.782 298.503 429.454 299.575C426.496 300.433 424.092 300.648 421.689 301.077C422.798 304.08 423.907 308.37 422.983 312.66C422.243 316.951 419.655 320.383 415.402 322.742C401.905 330.465 375.836 326.175 368.255 323.815C365.112 322.957 364.372 323.171 364.372 323.171C364.002 323.815 364.372 326.818 364.557 328.105C364.927 331.752 363.633 335.828 361.044 339.26C356.977 344.623 350.136 347.411 341.631 347.411H340.706C333.126 347.411 315.931 347.411 313.342 350.414C313.527 350.414 313.712 350.843 314.082 351.273C317.41 355.777 318.519 359.853 317.04 363.071C315.006 368.004 308.72 369.935 296.517 369.291C294.483 369.077 292.08 369.077 289.861 368.862C276.179 368.004 258.245 368.219 249 376.156C254.177 366.074 266.38 359.209 276.364 360.282C280.432 360.711 284.869 361.569 290.046 361.784C292.265 361.998 294.483 362.213 296.517 362.213C310.199 362.856 311.493 359.853 311.493 359.853C311.678 359.638 311.493 358.137 309.459 355.563C306.871 351.916 307.056 349.127 307.795 347.411C310.384 340.761 322.402 340.332 340.336 340.332H341.631C350.69 340.332 354.943 336.686 356.607 334.541C358.086 332.61 358.825 330.465 358.641 328.749C358.271 325.102 357.901 320.597 360.674 317.809C363.263 315.235 367.146 316.093 369.919 316.951C377.684 319.31 401.72 322.742 412.814 316.307C415.402 314.806 416.697 313.089 417.251 310.73C417.806 307.727 416.696 304.08 415.587 301.935C415.217 301.506 415.032 301.077 414.848 300.648C414.663 300.219 414.663 299.79 414.663 299.146C414.663 297.216 415.772 295.714 417.251 295.285C417.436 295.285 417.621 295.285 417.991 295.285C420.025 295.07 424.092 294.641 428.16 293.14C433.152 290.78 435.186 286.919 438.514 283.058C441.287 279.84 444.245 276.408 447.019 274.048C455.154 266.54 470.87 270.402 471.239 270.402Z" fill="white" fill-opacity="0.1"/>
<path d="M241.388 391.257C237.875 392.973 233.992 393.617 230.295 392.973L228.446 392.759C228.631 392.544 237.505 385.036 253.036 379.03C262.096 375.598 275.778 375.169 288.905 374.954C298.519 374.74 307.394 374.525 313.681 373.024C327.732 369.806 343.448 353.932 343.448 353.932C343.633 359.938 341.229 365.516 336.977 368.733C332.17 372.38 323.11 377.957 314.79 379.888C308.134 381.389 298.704 381.604 288.905 381.819C276.148 382.033 263.205 382.462 254.885 385.68C248.599 387.825 244.346 389.755 241.388 391.257Z" fill="white" fill-opacity="0.1"/>
<path d="M381.455 349.296C375.724 350.369 369.807 348.653 365 344.577C365.185 344.577 389.036 342.647 415.66 332.135C442.285 321.624 468.724 299.744 468.909 299.53C467.8 305.965 464.472 311.328 459.664 314.975C450.974 321.41 435.444 331.706 417.509 338.785C401.793 345.006 389.221 348.009 381.455 349.296Z" fill="white" fill-opacity="0.1"/>
<path d="M339.092 271.825C337.613 271.825 336.318 270.967 335.764 269.68C334.285 266.677 336.133 263.03 340.386 255.308C341.31 253.591 342.235 251.875 343.159 249.945C347.042 242.222 354.438 239.648 359.245 241.15C362.943 242.222 365.161 245.655 365.161 249.945C365.161 261.528 355.362 264.103 348.706 266.033C345.008 267.106 344.269 268.178 343.529 269.251C342.974 270.109 341.68 271.825 339.092 271.825ZM356.287 247.585C353.883 247.585 350.37 249.301 348.151 253.377C347.227 255.308 346.118 257.238 345.193 258.954C345.008 259.383 344.823 259.812 344.639 260.241C345.378 260.027 346.303 259.598 347.227 259.383C356.287 256.809 359.06 254.664 359.06 249.945C359.06 249.087 358.875 248.229 357.581 247.8C357.211 247.585 356.841 247.585 356.287 247.585Z" fill="white"/>
<path d="M309.697 318.588C309.142 318.588 308.402 318.373 307.663 318.159C306.369 317.515 305.444 316.228 305.259 314.727C304.89 311.295 307.848 308.935 314.319 303.572C315.798 302.5 317.277 301.213 318.756 299.925C325.043 294.563 332.623 295.635 336.506 299.282C339.464 302.071 340.389 306.146 338.91 310.008C335.027 320.519 325.043 318.588 318.387 317.086C314.689 316.228 313.579 317.086 312.655 317.73C311.915 317.944 310.991 318.588 309.697 318.588ZM316.723 309.793C317.462 309.793 318.387 310.007 319.311 310.222C328.556 312.153 331.699 311.295 333.363 307.219C333.733 306.361 333.733 305.503 332.623 304.43C330.774 302.714 326.152 301.856 322.084 305.288C320.42 306.575 318.941 307.862 317.647 308.935C317.462 309.149 317.092 309.364 316.723 309.793Z" fill="white"/>
<path d="M438.565 260.456C434.498 260.456 430.43 258.74 427.102 257.452C423.589 255.951 422.295 256.594 421.37 256.809C420.261 257.238 418.412 257.881 416.378 256.38C415.084 255.522 414.529 254.02 414.529 252.519C414.714 249.086 418.042 247.37 425.068 243.295C426.547 242.437 428.211 241.579 430.06 240.506C437.086 236.43 444.297 239.004 447.625 243.295C450.029 246.512 450.398 250.803 448.365 254.449C445.961 258.954 442.263 260.456 438.565 260.456ZM426.732 249.945C427.472 250.159 428.396 250.374 429.321 250.803C438.011 254.449 441.524 254.449 443.557 250.588C443.927 249.945 444.297 249.087 443.372 247.799C441.893 245.869 437.456 243.938 432.834 246.512C431.17 247.585 429.321 248.443 427.842 249.301C427.472 249.516 427.102 249.73 426.732 249.945Z" fill="white"/>
<path d="M135.527 352.267C159.193 354.627 183.414 356.557 206.895 353.125C209.114 352.696 210.038 356.343 208.189 357.415C196.541 364.28 183.784 365.352 171.211 365.138C158.638 364.923 146.251 362.993 134.418 358.273C133.123 357.63 132.384 355.914 132.754 354.412C132.939 352.696 134.233 352.052 135.527 352.267Z" fill="white"/>
<path d="M199.315 286.841C197.096 299.712 190.81 311.939 169.362 308.507C162.521 307.434 157.899 304.431 155.495 299.712C152.537 293.705 153.277 285.983 154.201 281.478C158.824 284.267 167.698 288.342 182.859 288.342C187.667 288.342 193.213 287.913 199.315 286.841Z" fill="#EECB8A"/>
<path d="M298.971 108.152H292.499C278.078 107.938 267.169 108.367 258.664 109.225C257.555 109.225 256.445 109.439 255.336 109.654C256.445 104.935 257 99.7863 257 94.209C269.758 95.067 280.296 82.6253 280.296 67.6095C280.296 53.0227 270.312 41.0101 258.11 41.0101C252.008 41.0101 245.907 44.2278 241.839 49.5906C235.183 40.5811 226.493 31.7861 215.4 23.2056C208.189 17.6283 191.364 4.97214 187.666 2.398C186.557 1.75446 185.447 1.53995 184.338 2.398L182.304 3.89957L183.783 17.1993C176.018 13.3381 168.807 11.4075 164.739 10.5494L161.966 10.1204L160.487 16.1267L162.706 17.4138C164 18.2719 164.37 19.1299 164.554 19.7734C165.294 25.1362 156.049 36.2908 150.688 42.7262C148.654 45.3003 146.805 47.4454 145.326 49.5906C141.258 44.2278 135.711 41.0101 129.61 41.0101C117.962 41.0101 108.347 52.8082 108.347 67.6095C108.347 82.1963 117.777 93.9945 129.61 94.209C129.055 110.083 133.123 123.168 141.258 132.607V132.821C141.258 132.821 141.258 132.821 141.073 132.821L139.964 133.465C135.711 136.253 130.719 140.114 125.542 143.976L124.063 145.048C123.139 145.906 122.214 146.55 121.845 146.979C121.475 147.193 120.92 147.622 120.92 147.837C118.332 149.982 115.558 152.127 112.97 154.487C108.532 158.133 104.28 161.995 100.212 165.641C98.7331 166.928 97.4389 168.215 96.3295 169.288C95.0353 170.575 93.7411 171.862 92.2619 173.364C91.1526 174.436 90.0432 175.723 89.1188 176.796C88.0094 177.868 86.9001 179.156 86.1605 180.228C85.6058 180.872 85.2361 181.301 85.0512 181.515C76.1764 191.597 74.8821 203.61 81.5382 213.692C88.0094 223.774 98.1785 225.49 111.676 218.626C113.34 217.768 115.373 216.481 117.592 214.979C118.517 214.335 119.626 213.477 120.735 212.834C124.063 210.474 127.946 207.257 132.198 203.824L133.308 202.966C134.232 202.108 135.342 201.25 136.266 200.392C139.039 198.033 141.998 195.673 144.771 193.099C145.696 204.897 147.175 214.121 149.024 220.556C151.612 229.78 157.159 249.086 149.763 275.257C149.393 276.115 147.544 282.336 147.544 289.844C147.544 294.348 148.284 299.282 150.503 303.572C154.016 310.222 160.117 314.298 168.622 315.585C171.211 316.014 173.799 316.228 176.018 316.228C192.658 316.228 202.457 305.932 205.415 285.982H205.6L205.97 281.692C205.97 281.263 205.97 280.834 205.97 280.405V279.547C205.97 278.689 206.155 277.616 206.155 276.544C206.155 275.686 206.155 274.399 206.155 273.541C206.155 272.254 206.155 270.752 206.155 269.465C208.744 267.105 217.988 262.386 231.485 258.096C231.485 258.31 231.67 258.525 231.67 258.739C232.225 260.241 232.779 261.743 233.334 263.459C233.889 264.96 234.443 266.462 235.183 267.963C237.032 272.468 239.251 276.973 242.024 281.049C243.503 283.194 245.352 285.339 247.201 286.84C249.974 289.2 253.302 291.131 256.445 292.418C260.328 293.919 264.396 294.777 268.094 294.777C271.237 294.777 274.195 294.134 276.229 293.061C292.499 283.837 297.122 266.462 288.986 244.153C287.137 239.004 285.473 234.714 283.809 230.853C283.07 227.635 281.961 224.203 280.112 220.342C273.825 206.184 262.547 202.966 256.815 202.323C257.555 196.102 258.294 183.231 256.63 166.499C256.445 163.925 256.076 161.351 255.706 158.991C265.32 158.777 276.044 158.133 285.104 157.061L288.062 156.632C292.499 155.988 297.306 155.345 300.819 154.487C313.392 151.698 319.309 144.405 319.309 131.963V130.247C319.124 117.805 311.358 109.439 298.971 108.152ZM169.362 308.721C162.521 307.648 157.898 304.645 155.495 299.926C152.537 293.919 153.276 286.197 154.201 281.692C158.823 284.481 167.698 288.556 182.859 288.556C187.666 288.556 193.213 288.127 199.314 287.055C197.095 299.711 190.809 311.938 169.362 308.721ZM229.451 255.307C216.879 259.168 210.038 262.601 206.155 265.604C206.155 263.888 205.97 262.172 205.785 260.455C205.785 260.241 205.785 259.812 205.6 259.597C209.853 259.812 215.954 259.383 221.686 257.023C224.829 255.736 227.418 254.235 229.636 252.089C229.821 252.733 230.006 253.377 230.191 254.02C230.191 254.235 230.376 254.664 230.376 254.878L229.451 255.307ZM273.825 287.055C271.791 288.127 268.094 288.556 264.026 287.913C261.622 287.484 258.849 286.626 256.261 285.339C254.042 284.266 252.008 282.979 250.159 281.263C254.227 279.976 260.328 277.831 266.984 274.613C270.497 272.683 274.01 270.538 277.523 267.963C280.851 265.389 283.994 262.601 286.953 259.383C288.617 271.61 284.179 281.049 273.825 287.055ZM313.762 131.963C313.762 139.471 311.358 145.048 299.895 147.622C296.567 148.48 291.945 149.124 287.692 149.553L284.734 149.982C274.75 151.055 262.732 151.698 252.378 151.913H248.865L249.605 155.988C250.344 159.42 250.714 163.067 251.084 166.928C253.302 189.238 250.714 204.468 250.714 204.682L249.974 208.973L253.672 208.758C254.042 208.758 258.664 208.544 263.841 211.118C263.841 211.118 264.026 211.118 264.026 211.332C267.909 213.263 271.976 216.91 274.935 223.345C276.414 226.777 277.523 229.78 278.078 232.569C279.372 235.358 280.666 238.79 281.961 242.436C282.515 243.724 283.07 245.225 283.44 246.727C283.625 247.156 283.809 247.799 283.994 248.228C284.364 249.301 284.549 250.159 284.919 251.231C283.994 252.304 283.255 253.377 282.33 254.449C279.372 257.881 276.044 260.67 272.716 263.03C271.976 263.459 271.237 264.102 270.497 264.531C269.758 264.96 269.018 265.389 268.279 265.818C262.362 269.25 256.445 271.825 252.008 273.326C249.235 274.399 246.831 275.042 245.352 275.257C244.612 274.184 244.058 272.897 243.318 271.61C241.284 267.534 239.62 263.459 238.326 259.597C237.032 255.951 236.292 252.948 235.738 250.802C235.738 250.588 235.553 250.373 235.553 250.159C235.183 248.657 234.813 247.799 234.628 247.799C233.889 245.869 232.964 244.367 232.779 244.153L230.561 240.72L228.157 243.938C226.123 246.727 223.165 249.086 219.652 250.373C213.366 252.948 206.71 252.733 203.012 252.519L197.835 251.66L198.944 256.809C199.129 257.667 199.314 258.525 199.499 259.812C199.684 260.241 199.684 260.884 199.684 261.314C199.869 262.815 200.054 264.531 200.054 266.247C200.239 267.105 200.239 268.178 200.239 269.036C200.239 270.538 200.239 271.825 200.239 273.326C200.239 274.184 200.239 275.042 200.239 275.9C200.239 276.973 200.054 278.045 200.054 278.903V279.976C172.875 284.695 159.747 277.831 155.68 274.828C162.706 247.585 156.974 227.85 154.201 218.197C152.352 211.332 150.872 200.178 149.763 186.02L149.393 179.585L144.956 183.66C140.703 187.522 136.451 191.383 132.198 194.815C131.274 195.673 130.35 196.531 129.425 197.175L128.316 198.033C124.248 201.465 120.55 204.468 117.037 206.828C116.113 207.471 115.188 208.329 114.079 208.973C112.045 210.474 110.196 211.547 108.902 212.19C98.1785 217.768 90.5979 216.91 85.7907 209.402C79.5044 199.534 84.8663 190.739 88.9339 186.02C89.1188 185.805 89.3037 185.591 89.8583 184.947C90.7828 183.875 91.7072 182.802 92.8166 181.515C93.7411 180.443 94.8504 179.37 96.1446 177.868C97.254 176.796 98.3633 175.509 99.8425 174.222C100.952 172.935 102.246 171.862 103.54 170.575C107.423 166.928 111.676 163.067 116.113 159.42C118.701 157.275 121.29 155.13 124.063 152.771L124.618 152.342C125.358 151.698 126.282 151.055 127.022 150.411L128.686 149.124C133.493 145.263 138.67 141.616 142.552 138.827L143.662 137.969C144.216 137.54 144.586 137.326 144.956 137.111L146.62 136.039V135.824H146.805L151.242 133.036L147.729 129.818C138.115 121.023 133.862 107.509 135.157 89.9187L135.527 85.6285L131.829 86.272C131.089 86.4865 130.165 86.4865 129.24 86.4865C120.735 86.4865 113.894 77.6916 113.894 66.7515C113.894 55.8114 120.735 47.0164 129.24 47.0164C134.417 47.0164 139.409 50.4486 142.183 56.0259L144.401 60.5306L147.175 56.4549C149.024 53.6663 151.427 50.6631 154.94 46.3729C163.815 35.6473 171.026 26.2088 170.101 18.0573C174.723 19.3444 180.455 21.704 185.817 25.1362L190.809 28.3539L188.775 10.7639C195.246 15.6977 206.34 23.8492 211.702 28.1394C223.72 37.3634 232.595 46.5874 239.251 56.4549L241.839 60.3161L244.058 56.0259C247.016 50.4486 252.193 47.0164 257.74 47.0164C266.799 47.0164 274.01 55.8114 274.01 66.7515C274.01 78.9786 264.95 88.8462 254.227 86.0575L250.159 84.985L250.529 89.7042C250.529 90.3477 250.529 90.7768 250.529 91.2058C250.529 99.1427 249.605 105.793 247.756 111.584L246.092 116.947L250.899 116.089C253.117 115.66 255.706 115.446 258.479 115.231C266.799 114.373 277.708 114.159 291.945 114.159H298.046C307.106 115.017 312.652 120.808 313.022 129.389V131.963H313.762Z" fill="black"/>
<path d="M273.826 287.055C271.793 288.127 268.095 288.556 264.027 287.913C261.624 287.484 258.85 286.626 256.262 285.339C254.043 284.266 252.009 282.979 250.16 281.263C254.228 279.976 260.329 277.831 266.986 274.613C270.498 272.682 274.011 270.537 277.524 267.963C280.852 265.389 283.996 262.6 286.954 259.383C288.618 271.61 284.18 281.048 273.826 287.055Z" fill="#EECB8A"/>
<path d="M252.379 273.327C249.605 274.399 247.202 275.043 245.723 275.257C244.983 274.185 244.428 272.898 243.689 271.611C244.428 271.825 245.168 272.04 245.907 272.254C247.941 272.898 250.16 273.327 252.379 273.327Z" fill="#AA813F"/>
<path d="M285.29 251.017C284.365 252.09 283.626 253.162 282.701 254.235C279.743 257.667 276.415 260.456 273.087 262.815C272.347 263.244 271.608 263.888 270.868 264.317C270.129 264.746 269.389 265.175 268.649 265.604C269.019 265.175 269.574 264.746 269.944 264.317C271.238 263.03 272.717 261.743 273.826 260.456C274.936 259.383 276.045 258.525 276.97 257.453C278.634 254.878 279.928 252.304 280.852 249.516C280.852 249.516 280.852 249.516 280.852 249.301V249.087V248.872C281.222 247.585 281.592 246.084 281.777 244.796C281.962 243.938 281.962 242.866 282.146 242.008C282.701 243.295 283.256 244.796 283.626 246.298C283.811 246.727 283.995 247.371 284.18 247.8C284.735 249.087 284.92 250.159 285.29 251.017Z" fill="#AA813F"/>
</svg>
